<?xml version="1.0" encoding="UTF-8"?>
<svg id="Ebene_1" xmlns="http://www.w3.org/2000/svg" version="1.1" viewBox="0 0 481.89 136.06">
  <!-- Generator: Adobe Illustrator 30.3.0, SVG Export Plug-In . SVG Version: 2.1.3 Build 182)  -->
  <defs>
    <style>
      .st0 {
        fill: #223c5a;
      }

      .st1 {
        fill: #3db8b5;
      }

      .st2 {
        stroke: #35b6b3;
        stroke-width: 4px;
      }

      .st2, .st3 {
        fill: none;
        stroke-miterlimit: 10;
      }

      .st3 {
        stroke: #b2dcdb;
        stroke-width: 3px;
      }
    </style>
  </defs>
  <path class="st0" d="M452.29,59.42h23.26c3.12,0,5.64-2.53,5.64-5.64v-2.09c0-3.12-2.53-5.64-5.64-5.64h-23.26c-22.04,0-35.21,15.54-35.21,43.49s13.18,43.33,35.21,43.33h23.24c3.13,0,5.66-2.53,5.66-5.66v-1.66c0-3.13-2.53-5.66-5.66-5.66h-23.24c-12.64,0-19.79-9.5-21.49-23.67h35.63c3.13,0,5.67-2.54,5.67-5.67v-2.19c0-3.13-2.54-5.67-5.67-5.67h-35.66c1.63-14.27,8.8-23.27,21.52-23.27Z"/>
  <line class="st2" x1="37.97" y1="45.92" x2="71.42" y2="14.14"/>
  <line class="st3" x1="10.65" y1="21.74" x2="37.97" y2="45.92"/>
  <circle class="st1" cx="39.13" cy="44.77" r="12.76"/>
  <circle class="st1" cx="9.29" cy="21.74" r="8.5"/>
  <circle class="st1" cx="68.6" cy="15.3" r="12.76"/>
  <path class="st0" d="M36.88,68.76h2.2c3.13,0,5.67,2.54,5.67,5.67v52.61c0,3.13-2.54,5.67-5.67,5.67h-2.2c-3.13,0-5.67-2.54-5.67-5.67v-52.61c0-3.13,2.54-5.67,5.67-5.67Z"/>
  <path class="st0" d="M60.81,80.15c0-22.04,10.77-35.98,34.27-35.98s36.77,13.94,36.77,35.98v46.89c0,3.13-2.54,5.68-5.68,5.68h-2.19c-3.13,0-5.68-2.54-5.68-5.68v-46.89c0-14.6-7.96-23.5-23.23-23.5s-20.73,8.89-20.73,23.5v46.9c0,3.13-2.54,5.67-5.67,5.67h-2.21c-3.13,0-5.67-2.54-5.67-5.67v-46.9Z"/>
  <path class="st0" d="M154.62,107.89h2.31c2.44,0,4.5,1.66,5.22,3.99,1.93,6.21,8.09,10.08,17.94,10.08,12.08,0,18.85-5.58,18.85-14.07,0-9.16-9.29-10.62-19.78-12.48-13.54-2.39-29.07-5.04-29.07-24.56,0-15.8,11.95-26.68,30.13-26.68,14.78,0,25.53,7.15,29.04,18.47,1.14,3.68-1.59,7.42-5.44,7.42h-1.55c-2.4,0-4.6-1.49-5.36-3.77-1.89-5.72-7.52-9.64-16.43-9.64-11.15,0-17.39,5.84-17.39,13.81,0,9.16,9.43,10.62,19.91,12.48,13.67,2.39,29.21,5.04,29.21,24.56,0,16.59-12.74,26.95-32.13,26.95-16.04,0-27.53-7.2-30.95-19.36-1.02-3.61,1.72-7.19,5.48-7.19Z"/>
  <path class="st0" d="M229.3,51.56c0-3.13,2.53-5.66,5.66-5.66h22.89c21.9,0,31.59,12.08,31.59,28.54s-9.69,28.67-31.59,28.67h-15.01v23.92c0,3.14-2.54,5.68-5.68,5.68h-2.18c-3.14,0-5.68-2.54-5.68-5.68V51.56ZM258.11,90.64c13.01,0,17.66-6.9,17.66-16.2s-4.65-16.06-17.66-16.06h-15.27v32.26h15.27Z"/>
  <path class="st0" d="M312.18,45.9h2.21c3.13,0,5.66,2.54,5.66,5.66v75.49c0,3.13-2.54,5.66-5.66,5.66h-2.21c-3.13,0-5.66-2.54-5.66-5.66V51.56c0-3.13,2.54-5.66,5.66-5.66Z"/>
  <path class="st0" d="M342,51.58c0-3.14,2.54-5.68,5.68-5.68h23.82c21.37,0,30.67,11.81,30.67,27.88,0,12.16-5.34,21.89-17.21,25.93-1.24.42-1.75,1.9-.99,2.98l16.51,23.19c2.04,2.87,0,6.85-3.53,6.85h-5.47c-1.45,0-2.8-.72-3.61-1.93l-18.78-28.17c-.4-.6-1.07-.96-1.79-.96h-9.57c-1.21,0-2.19.98-2.19,2.19v23.21c0,3.13-2.54,5.66-5.66,5.66h-2.21c-3.13,0-5.66-2.54-5.66-5.66V51.58ZM371.64,89.18c12.61,0,16.86-6.64,16.86-15.4s-4.38-15.4-16.86-15.4h-16.1v30.8h16.1Z"/>
</svg>